<?xml version="1.0" encoding="utf-8"?>

<!DOCTYPE svg PUBLIC "-//W3C//DTD SVG 1.1//EN" "http://www.w3.org/Graphics/SVG/1.1/DTD/svg11.dtd">
<!-- Uploaded to: SVG Repo, www.svgrepo.com, Generator: SVG Repo Mixer Tools -->
<svg height="800px" width="800px" version="1.1" id="_x32_" xmlns="http://www.w3.org/2000/svg" xmlns:xlink="http://www.w3.org/1999/xlink" 
	 viewBox="0 0 512 512"  xml:space="preserve">
<style type="text/css">
	.st0{fill:#000000;}
</style>
<g>
	<path class="st0" d="M354.946,238.89c25.264-25.196,41.015-60.45,40.99-98.95c0.016-38.509-15.726-73.763-40.981-98.951
		C329.768,15.727,294.504-0.025,255.996,0c-38.509-0.025-73.763,15.727-98.951,40.989c-25.254,25.188-41.006,60.442-40.981,98.951
		c-0.025,38.5,15.727,73.754,40.981,98.95c17.753,17.795,40.57,30.73,65.942,36.886V512h8.604h57.414h60.282v-63.15h-60.282v-34.455
		h63.25v-43.058h-63.25v-95.561C314.377,269.62,337.193,256.685,354.946,238.89z M255.996,193.746
		c-15.003-0.016-28.182-5.954-38.055-15.76c-9.806-9.872-15.734-23.051-15.76-38.046c0.026-15.003,5.954-28.19,15.76-38.063
		c9.882-9.806,23.06-15.744,38.055-15.76c15.003,0.016,28.181,5.954,38.063,15.76c9.806,9.872,15.734,23.06,15.76,38.063
		c-0.026,14.994-5.955,28.173-15.76,38.046C284.186,187.792,270.999,193.729,255.996,193.746z"/>
</g>
</svg>